<svg xmlns="http://www.w3.org/2000/svg" xml:space="preserve" width="184px" height="40px" version="1.1" style="shape-rendering:geometricPrecision; text-rendering:geometricPrecision; image-rendering:optimizeQuality; fill-rule:evenodd; clip-rule:evenodd" viewBox="0 0 140.09 30.45" xmlns:xlink="http://www.w3.org/1999/xlink">
 <defs>
  <style type="text/css">
   <![CDATA[
    .fil2 {fill:white}
    .fil0 {fill:#FF6C37}
    .fil1 {fill:white;fill-rule:nonzero}
   ]]>
  </style>
 </defs>
 <rect class="fil0" width="140.09" height="30.45" rx="2.77" ry="2.72"/>
 <path class="fil1" d="M39.11 9.95l-2.72 0c-0.13,-0.02 -0.26,0.04 -0.35,0.13 -0.1,0.08 -0.15,0.19 -0.15,0.3l0 9.68c0,0.12 0.07,0.25 0.2,0.31 0.26,0.16 0.59,0.16 0.85,0 0.13,-0.06 0.2,-0.19 0.2,-0.31l0 -3.75 1.88 0c0.81,0.04 1.62,-0.24 2.25,-0.75 0.61,-0.63 0.92,-1.5 0.85,-2.38l0 -0.13c0.07,-0.85 -0.2,-1.71 -0.79,-2.34 -0.61,-0.55 -1.4,-0.81 -2.22,-0.76zm1.88 3.32c0.04,0.55 -0.14,1.11 -0.49,1.53 -0.39,0.39 -0.92,0.57 -1.46,0.55l-1.88 0 0 -4.31 1.88 0c0.52,-0.04 1.03,0.17 1.42,0.52 0.37,0.42 0.55,0.97 0.5,1.53l0.03 0.18zm6.27 -2.62c-0.61,0.63 -0.92,1.52 -0.85,2.4l0 4.35c-0.07,0.89 0.24,1.75 0.85,2.4 1.35,1.01 3.19,1.01 4.54,0 0.62,-0.63 0.94,-1.51 0.85,-2.4l0 -4.31c0.09,-0.91 -0.23,-1.79 -0.85,-2.44 -1.35,-1.01 -3.21,-1.01 -4.54,0zm4.17 6.75c0.05,0.57 -0.13,1.13 -0.5,1.55 -0.37,0.37 -0.88,0.55 -1.4,0.52 -1.27,0 -1.88,-0.71 -1.88,-2.07l0 -4.31c0,-1.37 0.63,-2.07 1.88,-2.07 0.52,-0.03 1.03,0.15 1.4,0.52 0.37,0.42 0.55,0.98 0.5,1.53l0 4.33zm10.08 -2.58c-0.48,-0.2 -0.94,-0.41 -1.4,-0.57 -0.44,-0.15 -0.85,-0.37 -1.2,-0.67 -0.31,-0.25 -0.49,-0.68 -0.46,-1.08 -0.03,-0.46 0.17,-0.89 0.56,-1.15 0.42,-0.25 0.92,-0.36 1.4,-0.35 0.46,-0.01 0.92,0.08 1.34,0.28 0.21,0.09 0.43,0.18 0.65,0.26 0.16,0 0.29,-0.09 0.37,-0.24 0.07,-0.13 0.14,-0.28 0.14,-0.44 0,-0.3 -0.27,-0.54 -0.83,-0.72 -0.55,-0.17 -1.12,-0.26 -1.71,-0.26 -0.37,0 -0.74,0.04 -1.11,0.13 -0.35,0.09 -0.7,0.22 -1.01,0.4 -0.33,0.21 -0.59,0.5 -0.77,0.85 -0.21,0.41 -0.3,0.87 -0.3,1.33 -0.02,0.57 0.15,1.12 0.48,1.58 0.31,0.41 0.72,0.72 1.2,0.94 0.48,0.21 0.94,0.39 1.4,0.56 0.44,0.16 0.85,0.42 1.2,0.75 0.33,0.35 0.5,0.81 0.48,1.29 0.03,0.5 -0.17,1 -0.54,1.35 -0.42,0.33 -0.94,0.48 -1.47,0.46 -0.37,0.02 -0.72,-0.05 -1.05,-0.18 -0.26,-0.08 -0.48,-0.22 -0.69,-0.41l-0.46 -0.44c-0.09,-0.09 -0.2,-0.17 -0.33,-0.19 -0.15,0.02 -0.27,0.1 -0.35,0.21 -0.09,0.13 -0.16,0.27 -0.16,0.46 0,0.35 0.29,0.7 0.94,1.05 0.66,0.39 1.42,0.57 2.17,0.55 0.83,0.04 1.66,-0.24 2.31,-0.75 0.6,-0.59 0.92,-1.42 0.86,-2.25 0.08,-1.15 -0.59,-2.25 -1.66,-2.75l0 0zm11.6 -4.87l-5.88 0c-0.13,0 -0.24,0.06 -0.32,0.17 -0.16,0.24 -0.16,0.55 0,0.77 0.08,0.1 0.19,0.17 0.32,0.17l2.34 0 0 9c0,0.12 0.07,0.25 0.18,0.31 0.26,0.16 0.59,0.16 0.85,0 0.13,-0.06 0.19,-0.19 0.19,-0.31l0 -9 2.3 0c0.13,0.02 0.26,-0.06 0.31,-0.17 0.08,-0.11 0.13,-0.25 0.11,-0.38 0,-0.13 -0.03,-0.26 -0.11,-0.37 -0.05,-0.13 -0.16,-0.19 -0.29,-0.19zm11.67 0c-0.37,0 -0.68,0.26 -0.94,0.78l-2.29 4.35 -2.27 -4.35c-0.25,-0.52 -0.59,-0.78 -0.94,-0.78l-0.25 0c-0.28,0.06 -0.48,0.32 -0.45,0.61l0 9.48c0,0.14 0.08,0.27 0.21,0.33 0.13,0.07 0.27,0.13 0.44,0.11 0.15,0 0.28,-0.06 0.4,-0.13 0.13,-0.05 0.19,-0.18 0.19,-0.31l0 -7.64 2.19 4.17c0.06,0.2 0.24,0.35 0.44,0.35 0.23,-0.02 0.41,-0.15 0.48,-0.35l2.2 -4.09 0 7.54c0,0.13 0.07,0.26 0.18,0.31 0.26,0.15 0.59,0.15 0.85,0 0.13,-0.05 0.18,-0.18 0.18,-0.31l0 -9.5c0.02,-0.05 0.02,-0.09 0,-0.14l0 0c-0.07,-0.28 -0.35,-0.48 -0.62,-0.43zm8.48 0c-0.41,0 -0.67,0.15 -0.74,0.41l-2.97 9.53c-0.02,0.04 -0.02,0.07 0,0.11 0,0.17 0.09,0.31 0.24,0.39 0.15,0.09 0.32,0.14 0.5,0.14 0.18,0.04 0.39,-0.09 0.44,-0.27l0.63 -2.1 3.74 0 0.63 2.1c0.05,0.18 0.26,0.29 0.44,0.27 0.18,0.02 0.37,-0.03 0.52,-0.14 0.14,-0.06 0.24,-0.19 0.24,-0.35l-3.67 -10.09zm3.67 10.05l0 -0.06 -2.95 -9.56c-0.08,-0.28 -0.32,-0.41 -0.72,-0.41l3.67 10.03zm-5.29 -2.89l1.6 -5.41 1.62 5.41 -3.22 0 0 0zm15.66 -7.06c-0.25,-0.15 -0.58,-0.15 -0.84,0 -0.11,0.05 -0.19,0.18 -0.19,0.31l0 7.41 -3.59 -7.04c-0.09,-0.22 -0.24,-0.43 -0.41,-0.59 -0.15,-0.13 -0.31,-0.19 -0.51,-0.19 -0.41,0 -0.61,0.15 -0.61,0.43l0 9.68c-0.02,0.12 0.05,0.25 0.18,0.31 0.26,0.16 0.59,0.16 0.85,0 0.11,-0.06 0.18,-0.19 0.18,-0.31l0 -7.34 3.75 7.26c0.13,0.31 0.42,0.54 0.75,0.55 0.15,0 0.3,-0.03 0.44,-0.12 0.12,-0.08 0.19,-0.19 0.19,-0.32l0 -9.71c0,-0.15 -0.07,-0.26 -0.19,-0.33z"/>
 <path class="fil2" d="M25.16 10.03c-0.12,0.11 -0.22,0.21 -0.35,0.29l-1.52 -1.52 1.93 -1.94c0.84,0.89 0.82,2.29 -0.06,3.17z"/>
 <path class="fil2" d="M21.88 10.03c-0.88,-0.91 -0.85,-2.38 0.07,-3.27 0.83,-0.8 2.14,-0.85 3.04,-0.13l-2.04 2.04c-0.05,0.06 -0.05,0.15 0,0.21l1.59 1.59c-0.9,0.43 -1.97,0.25 -2.67,-0.45l0.01 0.01z"/>
 <path class="fil2" d="M17.26 18.22l-1.06 -1.05 5.95 -5.23c0.05,-0.05 0.12,-0.1 0.15,-0.17 -0.2,1.69 -2.59,4.11 -5.04,6.45z"/>
 <path class="fil2" d="M10.56 22.56c-0.12,0.07 -0.19,0.19 -0.15,0.32l0.25 1.1c0.02,0.07 -0.02,0.15 -0.07,0.18 -0.05,0.05 -0.13,0.05 -0.18,0l-1.56 -1.6 4.76 -4.78 2.31 -0.5 1.1 1.11c-1.97,1.63 -4.14,3.04 -6.46,4.14l0 0.03z"/>
 <path class="fil2" d="M7.49 24.16c-0.04,-0.01 -0.07,-0.03 -0.09,-0.06 -0.01,-0.04 -0.01,-0.07 0,-0.1l1.2 -1.2 1.56 1.53 -2.67 -0.17z"/>
 <path class="fil2" d="M12.09 16.43l1.49 -1.48 1.12 1.15 -2.55 0.55c-0.06,0.02 -0.12,-0.03 -0.12,-0.08 -0.02,-0.04 0,-0.07 0.03,-0.09l0.03 -0.05z"/>
 <path class="fil2" d="M15.65 17.02l-1.4 0.35c-0.03,0.01 -0.05,0.01 -0.08,0 -0.02,-0.04 -0.02,-0.07 0,-0.09l0.85 -0.85 0.63 0.59z"/>
 <path class="fil2" d="M15.23 16.16l5.63 -5.57c0.32,-0.3 0.81,-0.3 1.12,0 0.15,0.15 0.24,0.36 0.24,0.56 -0.02,0.22 -0.1,0.42 -0.27,0.57l-5.95 5.25 -0.77 -0.81z"/>
 <path class="fil2" d="M21.4 10c-0.29,0.02 -0.55,0.12 -0.75,0.32l-5.65 5.64 -1.2 -1.2c5.56,-5.54 6.56,-5.59 7.6,-4.76z"/>
 <path class="fil0" d="M25.04 8.05c-0.08,0.03 -0.13,0.13 -0.08,0.21 0,0.02 0.01,0.02 0.01,0.02 0.09,0.18 0.07,0.42 -0.06,0.57 -0.07,0.07 -0.07,0.17 -0.02,0.23 0,0 0,0 0.02,0.02 0.03,0.02 0.08,0.02 0.11,0 0.05,0 0.1,-0.03 0.14,-0.07 0.23,-0.26 0.26,-0.63 0.11,-0.95 -0.08,-0.07 -0.16,-0.08 -0.23,-0.03z"/>
 <polygon class="fil1" points="129.87,14.19 123.66,14.19 123.66,13.16 129.87,13.16 "/>
 <polygon class="fil1" points="123.66,16.26 129.87,16.26 129.87,15.23 123.66,15.23 "/>
 <polygon class="fil1" points="125.73,11.09 123.66,11.09 123.66,10.05 125.73,10.05 "/>
 <polygon class="fil1" points="123.66,17.3 123.66,18.33 127.8,18.33 127.8,17.3 "/>
 <path class="fil2" d="M122.11 6.95c-0.86,0 -1.55,0.69 -1.55,1.55l0 13.45c0,0.86 0.69,1.55 1.55,1.55l9.31 0c0.86,0 1.55,-0.69 1.55,-1.55l0 -11.9c0,-0.13 -0.05,-0.27 -0.15,-0.36l-2.58 -2.59c-0.1,-0.1 -0.23,-0.15 -0.37,-0.15l-7.76 0zm6.73 1.03l-6.73 0c-0.29,0 -0.52,0.24 -0.52,0.52l0 13.45c0,0.29 0.23,0.52 0.52,0.52l9.31 0c0.29,0 0.52,-0.23 0.52,-0.52l0 -10.86 -2.07 0c-0.57,0 -1.03,-0.47 -1.03,-1.04l0 -2.07z"/>
</svg>
